<svg width="20" height="20" viewBox="0 0 20 20" fill="none" xmlns="http://www.w3.org/2000/svg">
  <path d="M17.56 0H2.45C1.1 0 0 1.44 0 3.21V16.8C0 18.56 1.1 20 2.45 20h15.1C18.9 20 20 18.56 20 16.79V3.22C20 1.45 18.9 0 17.56 0Zm1.33 16.79c0 .96-.6 1.74-1.33 1.74H2.45c-.74 0-1.33-.78-1.33-1.74V3.22c0-.96.6-1.75 1.33-1.75h15.1c.74 0 1.33.79 1.33 1.75v13.57Z" fill="#00B2FF"/>
  <path d="m12.61 9.83 4.9-5.76a.9.9 0 0 0 .04-1.04c-.21-.3-.56-.33-.8-.06l-6.74 7.96-1.32-1.54v-.02a.95.95 0 0 0-.1-.1l-5.35-6.3c-.23-.27-.58-.25-.79.06a.9.9 0 0 0 .05 1.04l4.94 5.81-4.92 6.06a.9.9 0 0 0-.03 1.04c.11.15.26.24.41.24a.5.5 0 0 0 .38-.2l5-6.15 1.36 1.6c.11.12.24.18.37.18.14 0 .27-.07.38-.2l1.4-1.63 4.97 6.2c.1.14.24.2.38.2a.5.5 0 0 0 .4-.22.9.9 0 0 0-.01-1.04L12.6 9.83Z" fill="#00B2FF"/>
</svg>
