<svg width="30" height="30" viewBox="0 0 30 30" xmlns="http://www.w3.org/2000/svg">
  <path d="M26.798 23.908c.321-.444.511-.99.511-1.579v-3.52a.586.586 0 0 0-.586-.586h-2.618c-1.21 0-2.196.985-2.196 2.195v1.912c0 .588.19 1.133.512 1.578-.401.064-.786.193-1.146.38a4.985 4.985 0 0 0-3.68-2.193l-.018-.005c.548-.612.882-1.42.882-2.305V15a.586.586 0 0 0-.586-.586h-3.559a2.776 2.776 0 0 0-2.773 2.773v2.598c0 .885.334 1.693.883 2.305l-.019.005a4.985 4.985 0 0 0-3.68 2.194 3.775 3.775 0 0 0-1.146-.381c.321-.445.512-.99.512-1.579v-3.52a.586.586 0 0 0-.586-.586H4.886c-1.21 0-2.195.985-2.195 2.195v1.912c0 .589.19 1.134.511 1.578A3.826 3.826 0 0 0 0 27.678v1.736c0 .324.262.586.586.586h28.828a.586.586 0 0 0 .586-.586v-1.736a3.826 3.826 0 0 0-3.202-3.77Zm-22.935-3.49c0-.564.459-1.023 1.023-1.023h2.033v.713c0 .35-.285.635-.635.635H3.863v-.325Zm0 1.497h2.421c.223 0 .437-.041.635-.116v.53a1.53 1.53 0 0 1-1.528 1.529 1.53 1.53 0 0 1-1.529-1.529v-.415Zm1.905 3.114-.377.378-.378-.378h.755Zm2.116 2.026v1.773H1.172v-1.15c0-1.314.962-2.407 2.219-2.613l1.585 1.585a.586.586 0 0 0 .829 0l1.586-1.586c.28.046.55.136.8.268a4.959 4.959 0 0 0-.307 1.723ZM15 22.073a2.29 2.29 0 0 1-2.287-2.288v-.774h3.502c.388 0 .753-.1 1.072-.273v1.047A2.29 2.29 0 0 1 15 22.073Zm1.021 1.171L15 24.266l-1.021-1.021h2.042Zm-3.308-6.057c0-.883.718-1.601 1.601-1.601h2.973v1.18c0 .592-.481 1.073-1.072 1.073h-3.502v-.652Zm8.231 11.641H9.055v-1.172h3.816a.586.586 0 1 0 0-1.172H9.1a3.818 3.818 0 0 1 3.257-3.204l2.23 2.229a.584.584 0 0 0 .828 0l2.23-2.23c1.86.25 3.3 1.848 3.3 3.776v1.773Zm2.137-8.41c0-.564.46-1.023 1.024-1.023h2.032v.713c0 .35-.284.635-.634.635h-2.422v-.325Zm0 1.497h2.422c.223 0 .437-.041.634-.116v.53a1.53 1.53 0 0 1-1.528 1.529 1.53 1.53 0 0 1-1.528-1.529v-.415Zm1.906 3.114-.378.378-.377-.378h.755Zm-2.871 3.8v-1.774c0-.605-.109-1.186-.307-1.723.25-.132.52-.222.8-.268l1.586 1.586a.586.586 0 0 0 .829 0l1.585-1.585a2.653 2.653 0 0 1 2.22 2.613v1.15h-6.713ZM17.888 3.828a.586.586 0 0 0-.829 0l-2.875 2.876-1.243-1.243a.586.586 0 1 0-.829.828l1.658 1.658a.586.586 0 0 0 .828 0l3.29-3.29a.586.586 0 0 0 0-.829Z"/>
  <path d="M17.395.508a.586.586 0 0 0-.477 1.07 4.724 4.724 0 0 1 2.797 4.31c0 2.6-2.115 4.715-4.715 4.715a4.72 4.72 0 0 1-4.716-4.716c0-1.85 1.09-3.538 2.777-4.3A.586.586 0 1 0 12.58.52a5.901 5.901 0 0 0-3.467 5.368A5.894 5.894 0 0 0 15 11.775a5.894 5.894 0 0 0 5.887-5.888A5.897 5.897 0 0 0 17.395.508Z"/>
  <path d="M15.021 0H15a.586.586 0 0 0 0 1.172h.018A.586.586 0 0 0 15.021 0ZM15.414 26.656a.59.59 0 0 0-.414-.172.59.59 0 0 0-.414.172.59.59 0 0 0-.172.414.59.59 0 0 0 .172.415.59.59 0 0 0 1-.414.59.59 0 0 0-.172-.415Z"/>
</svg>
