<svg width="30" height="30" viewBox="0 0 30 30" xmlns="http://www.w3.org/2000/svg">
  <path fill-rule="evenodd" clip-rule="evenodd" d="M30 15a15 15 0 1 0-30 0 15 15 0 0 0 30 0ZM5 15a10 10 0 1 1 20 0 10 10 0 0 1-20 0Zm10-9.1a9.1 9.1 0 1 1-2.7 17.8c.4-.6.9-1.5 1-2.2l.7-2.2c.3.5 1.2 1 2.1 1 2.8 0 4.9-2.6 4.9-5.8 0-3-2.5-5.4-5.8-5.4-4 0-6.2 2.7-6.2 5.7 0 1.3.8 3 2 3.6l.2-.1a74.6 74.6 0 0 1 .2-1.4c-.4-.4-.7-1.3-.7-2 0-2.2 1.6-4.1 4.3-4.1 2.3 0 3.9 1.5 3.9 3.8 0 2.5-1.3 4.2-3 4.2-.9 0-1.6-.7-1.4-1.7L15 16c.2-.7.4-1.4.4-1.9 0-.7-.4-1.3-1.2-1.3-.9 0-1.7 1-1.7 2.3 0 .8.3 1.4.3 1.4l-1 4.6c-.2.8-.2 1.7-.1 2.5A9.1 9.1 0 0 1 15 5.9Z"/>
</svg>
