<svg xmlns="http://www.w3.org/2000/svg" xmlns:xlink="http://www.w3.org/1999/xlink"><symbol id="detective" viewBox="0 0 30 30">
  <path d="M15 9.4c-.3 0-.6.4-.6.7 0 .4.3.7.6.7s.6-.3.6-.7c0-.3-.3-.7-.6-.7Z"/>
  <path d="M28.2 13.6H26c-1.2-4-3-11.1-6.1-13-1.6-1-3.1-.4-3.7 1-.2.6-.7 1-1.2 1s-1-.4-1.2-1c-.6-1.3-2-2.1-3.5-1.2C7 2.2 5.3 9.5 4 13.6H1.8c-1 0-1.8.9-1.8 2s.8 2 1.8 2h26.4c1 0 1.8-.9 1.8-2s-.8-2-1.8-2ZM6.1 10.8h6.6c.3 0 .5-.3.5-.7 0-.3-.2-.7-.5-.7H6.5c1.8-5.7 3.4-7.3 4.3-7.8.9-.5 1.6 0 2 .6.3 1 1.2 1.7 2.2 1.7 1 0 1.9-.6 2.3-1.7.3-.7 1-1 2-.5.8.6 2.5 2.3 4.2 7.7h-6.2c-.3 0-.5.4-.5.7 0 .4.2.7.5.7H24l.8 2.8H5.3l.8-2.8Zm22.1 5.5H1.8c-.4 0-.6-.3-.6-.7 0-.4.2-.7.6-.7h26.4c.4 0 .6.3.6.7 0 .4-.2.7-.6.7ZM13.8 20.4H4.5c-.4 0-.6.3-.6.7v2.7C3.9 27.2 6.2 30 9 30c2.2 0 4.2-1.6 5-4a2 2 0 0 1 1.8 0c.8 2.4 2.8 4 5 4 2.9 0 5.2-2.8 5.2-6.2v-2.7c0-.4-.2-.7-.6-.7h-9.3c-.4 0-.6.3-.6.7v.7h-1.2V21c0-.4-.2-.7-.6-.7Zm-4.7 8.2c-2.2 0-4-2.1-4-4.8v-2h8.1v2c0 2.7-1.8 4.8-4 4.8Zm7.7-6.8H25v2c0 2.7-1.9 4.8-4.1 4.8-2.3 0-4.1-2.1-4.1-4.8v-2ZM15.6 23v1.4a3 3 0 0 0-1.2 0V23h1.2Z"/>
  <path d="M9.1 25.9c-1 0-1.7-1-1.7-2 0-.4-.3-.8-.6-.8s-.6.4-.6.7c0 2 1.3 3.5 3 3.5.3 0 .5-.3.5-.7 0-.4-.2-.7-.6-.7ZM20.9 27.3c1.6 0 2.9-1.6 2.9-3.5 0-.3-.3-.7-.6-.7s-.6.4-.6.7c0 1.2-.8 2-1.7 2-.4 0-.6.4-.6.8s.2.7.6.7Z"/>
</symbol><symbol id="email" viewBox="0 0 20 20">
  <path d="M17.56 0H2.45C1.1 0 0 1.44 0 3.21V16.8C0 18.56 1.1 20 2.45 20h15.1C18.9 20 20 18.56 20 16.79V3.22C20 1.45 18.9 0 17.56 0Zm1.33 16.79c0 .96-.6 1.74-1.33 1.74H2.45c-.74 0-1.33-.78-1.33-1.74V3.22c0-.96.6-1.75 1.33-1.75h15.1c.74 0 1.33.79 1.33 1.75v13.57Z"/>
  <path d="m12.61 9.83 4.9-5.76a.9.9 0 0 0 .04-1.04c-.21-.3-.56-.33-.8-.06l-6.74 7.96-1.32-1.54v-.02a.95.95 0 0 0-.1-.1l-5.35-6.3c-.23-.27-.58-.25-.79.06a.9.9 0 0 0 .05 1.04l4.94 5.81-4.92 6.06a.9.9 0 0 0-.03 1.04c.11.15.26.24.41.24a.5.5 0 0 0 .38-.2l5-6.15 1.36 1.6c.11.12.24.18.37.18.14 0 .27-.07.38-.2l1.4-1.63 4.97 6.2c.1.14.24.2.38.2a.5.5 0 0 0 .4-.22.9.9 0 0 0-.01-1.04L12.6 9.83Z"/>
</symbol><symbol id="hired" viewBox="0 0 30 30">
  <path d="M26.798 23.908c.321-.444.511-.99.511-1.579v-3.52a.586.586 0 0 0-.586-.586h-2.618c-1.21 0-2.196.985-2.196 2.195v1.912c0 .588.19 1.133.512 1.578-.401.064-.786.193-1.146.38a4.985 4.985 0 0 0-3.68-2.193l-.018-.005c.548-.612.882-1.42.882-2.305V15a.586.586 0 0 0-.586-.586h-3.559a2.776 2.776 0 0 0-2.773 2.773v2.598c0 .885.334 1.693.883 2.305l-.019.005a4.985 4.985 0 0 0-3.68 2.194 3.775 3.775 0 0 0-1.146-.381c.321-.445.512-.99.512-1.579v-3.52a.586.586 0 0 0-.586-.586H4.886c-1.21 0-2.195.985-2.195 2.195v1.912c0 .589.19 1.134.511 1.578A3.826 3.826 0 0 0 0 27.678v1.736c0 .324.262.586.586.586h28.828a.586.586 0 0 0 .586-.586v-1.736a3.826 3.826 0 0 0-3.202-3.77Zm-22.935-3.49c0-.564.459-1.023 1.023-1.023h2.033v.713c0 .35-.285.635-.635.635H3.863v-.325Zm0 1.497h2.421c.223 0 .437-.041.635-.116v.53a1.53 1.53 0 0 1-1.528 1.529 1.53 1.53 0 0 1-1.529-1.529v-.415Zm1.905 3.114-.377.378-.378-.378h.755Zm2.116 2.026v1.773H1.172v-1.15c0-1.314.962-2.407 2.219-2.613l1.585 1.585a.586.586 0 0 0 .829 0l1.586-1.586c.28.046.55.136.8.268a4.959 4.959 0 0 0-.307 1.723ZM15 22.073a2.29 2.29 0 0 1-2.287-2.288v-.774h3.502c.388 0 .753-.1 1.072-.273v1.047A2.29 2.29 0 0 1 15 22.073Zm1.021 1.171L15 24.266l-1.021-1.021h2.042Zm-3.308-6.057c0-.883.718-1.601 1.601-1.601h2.973v1.18c0 .592-.481 1.073-1.072 1.073h-3.502v-.652Zm8.231 11.641H9.055v-1.172h3.816a.586.586 0 1 0 0-1.172H9.1a3.818 3.818 0 0 1 3.257-3.204l2.23 2.229a.584.584 0 0 0 .828 0l2.23-2.23c1.86.25 3.3 1.848 3.3 3.776v1.773Zm2.137-8.41c0-.564.46-1.023 1.024-1.023h2.032v.713c0 .35-.284.635-.634.635h-2.422v-.325Zm0 1.497h2.422c.223 0 .437-.041.634-.116v.53a1.53 1.53 0 0 1-1.528 1.529 1.53 1.53 0 0 1-1.528-1.529v-.415Zm1.906 3.114-.378.378-.377-.378h.755Zm-2.871 3.8v-1.774c0-.605-.109-1.186-.307-1.723.25-.132.52-.222.8-.268l1.586 1.586a.586.586 0 0 0 .829 0l1.585-1.585a2.653 2.653 0 0 1 2.22 2.613v1.15h-6.713ZM17.888 3.828a.586.586 0 0 0-.829 0l-2.875 2.876-1.243-1.243a.586.586 0 1 0-.829.828l1.658 1.658a.586.586 0 0 0 .828 0l3.29-3.29a.586.586 0 0 0 0-.829Z"/>
  <path d="M17.395.508a.586.586 0 0 0-.477 1.07 4.724 4.724 0 0 1 2.797 4.31c0 2.6-2.115 4.715-4.715 4.715a4.72 4.72 0 0 1-4.716-4.716c0-1.85 1.09-3.538 2.777-4.3A.586.586 0 1 0 12.58.52a5.901 5.901 0 0 0-3.467 5.368A5.894 5.894 0 0 0 15 11.775a5.894 5.894 0 0 0 5.887-5.888A5.897 5.897 0 0 0 17.395.508Z"/>
  <path d="M15.021 0H15a.586.586 0 0 0 0 1.172h.018A.586.586 0 0 0 15.021 0ZM15.414 26.656a.59.59 0 0 0-.414-.172.59.59 0 0 0-.414.172.59.59 0 0 0-.172.414.59.59 0 0 0 .172.415.59.59 0 0 0 1-.414.59.59 0 0 0-.172-.415Z"/>
</symbol><symbol id="icon-close" viewBox="0 0 20 20"><path d="M.293 18.291a1 1 0 101.414 1.414L10 11.413l8.292 8.292a1 1 0 101.414-1.414l-8.292-8.292 8.292-8.292A1 1 0 1018.291.293L9.999 8.585 1.707.293A1 1 0 10.293 1.707L8.585 10 .293 18.291z"/></symbol><symbol id="ok" viewBox="0 0 30 30">
  <path d="M15 0C6.729 0 0 6.729 0 15c0 8.293 6.729 15 15 15 8.293 0 15-6.729 15-15 .021-8.271-6.707-15-15-15Zm.214 5.679c2.7 0 4.929 2.228 4.907 4.95 0 2.742-2.25 4.95-4.992 4.907-2.7-.043-4.865-2.25-4.865-4.929a4.934 4.934 0 0 1 4.95-4.928Zm5.507 11.571c0 .043-.021.064-.021.107a1.401 1.401 0 0 1-.643 1.007c-.236.15-.493.3-.75.429a9.662 9.662 0 0 1-2.036.75c-.085.021-.085.021-.021.086l1.178 1.178 1.5 1.5a1.43 1.43 0 0 1-.385 2.314c-.15.086-.322.108-.493.15h-.279c-.021 0-.043 0-.043-.021-.342-.043-.62-.214-.878-.45l-2.593-2.593c-.064-.064-.064-.064-.128 0l-2.615 2.614c-.15.15-.3.258-.493.343-.128.065-.278.086-.407.107h-.278c-.043 0-.065-.021-.107-.021-.579-.107-.965-.429-1.136-.986-.172-.557-.043-1.05.364-1.457l1.072-1.071 1.585-1.586c.064-.064.064-.064-.021-.086-.022 0-.065-.021-.086-.021a9.26 9.26 0 0 1-2.678-1.136c-.493-.321-.729-.793-.665-1.371a1.44 1.44 0 0 1 2.207-1.072c.172.107.322.193.515.279a6.1 6.1 0 0 0 3.128.643 6.069 6.069 0 0 0 1.607-.3c.515-.172.965-.407 1.436-.665a1.445 1.445 0 0 1 2.079.75c.043.129.064.236.085.365v.214Z"/>
  <path d="M15.171 12.643c1.157 0 2.057-.965 2.036-2.014.021-1.05-.857-2.036-2.014-2.036-1.115 0-2.036.9-2.036 2.014 0 1.114.9 2.036 2.014 2.036Z"/>
</symbol><symbol id="pinterest" viewBox="0 0 30 30">
  <path fill-rule="evenodd" clip-rule="evenodd" d="M30 15a15 15 0 1 0-30 0 15 15 0 0 0 30 0ZM5 15a10 10 0 1 1 20 0 10 10 0 0 1-20 0Zm10-9.1a9.1 9.1 0 1 1-2.7 17.8c.4-.6.9-1.5 1-2.2l.7-2.2c.3.5 1.2 1 2.1 1 2.8 0 4.9-2.6 4.9-5.8 0-3-2.5-5.4-5.8-5.4-4 0-6.2 2.7-6.2 5.7 0 1.3.8 3 2 3.6l.2-.1a74.6 74.6 0 0 1 .2-1.4c-.4-.4-.7-1.3-.7-2 0-2.2 1.6-4.1 4.3-4.1 2.3 0 3.9 1.5 3.9 3.8 0 2.5-1.3 4.2-3 4.2-.9 0-1.6-.7-1.4-1.7L15 16c.2-.7.4-1.4.4-1.9 0-.7-.4-1.3-1.2-1.3-.9 0-1.7 1-1.7 2.3 0 .8.3 1.4.3 1.4l-1 4.6c-.2.8-.2 1.7-.1 2.5A9.1 9.1 0 0 1 15 5.9Z"/>
</symbol><symbol id="stopwatch" viewBox="0 0 30 30">
  <path d="M3.3 10 1.76 8.73a1.55 1.55 0 0 1 0-2.48c.84-.69 2.2-.69 3.03 0L6.43 7.6a16.9 16.9 0 0 1 5.71-1.99V3.87h-1.43c-.39 0-.71-.27-.71-.59V1.76C10 .79 10.96 0 12.14 0h5.72C19.04 0 20 .79 20 1.76v1.52c0 .32-.32.59-.71.59h-1.43V5.6c2.04.33 4 1 5.7 1.99l1.65-1.35c.83-.69 2.2-.69 3.03 0 .83.68.83 1.8 0 2.48L26.7 10a11 11 0 0 1 3.3 7.7C30 24.48 23.27 30 15 30S0 24.48 0 17.7A11 11 0 0 1 3.3 10Zm.48-2.92a.83.83 0 0 0-1 0 .52.52 0 0 0 0 .83l1.47 1.2c.33-.27.68-.54 1.04-.8L3.8 7.09Zm14.8-5.32c0-.33-.33-.59-.72-.59h-5.72c-.4 0-.71.26-.71.59v.94h7.14v-.94Zm-5 2.1v1.59c.94-.08 1.9-.08 2.85 0V3.87h-2.86Zm13.65 3.22a.83.83 0 0 0-1.01 0L24.7 8.32c.36.25.71.52 1.04.8l1.48-1.21a.52.52 0 0 0 0-.83ZM15 28.83c7.48 0 13.57-5 13.57-11.13 0-2.71-1.2-5.32-3.37-7.35-.6-.56-1.27-1.07-2-1.52A15.25 15.25 0 0 0 15 6.56c-.68 0-1.37.04-2.04.13A15.25 15.25 0 0 0 6.8 8.83c-.72.45-1.39.96-1.99 1.52a10.06 10.06 0 0 0-3.37 7.35c0 6.13 6.09 11.13 13.57 11.13Z"/>
  <path d="M15 19.45c-1.18 0-2.14-.79-2.14-1.75 0-.77.6-1.42 1.43-1.66v-4.2c0-.33.32-.59.71-.59.4 0 .71.26.71.59v4.2c.84.24 1.43.9 1.43 1.66 0 .96-.96 1.75-2.14 1.75Zm0-2.34c-.4 0-.71.26-.71.59 0 .32.32.58.71.58.4 0 .71-.26.71-.58 0-.33-.32-.6-.71-.6Z"/>
  <path d="M7.39 11.51a.5.5 0 0 1 .08-.06 11.44 11.44 0 0 1 4.5-2.19c.38-.09.77.09.89.4.1.31-.1.64-.49.73-1.25.3-2.41.82-3.4 1.52l.47.4c.28.23.28.6 0 .83a.8.8 0 0 1-.5.17.8.8 0 0 1-.5-.17l-.49-.4a6.91 6.91 0 0 0-2.2 4.37h.68c.4 0 .71.26.71.59 0 .32-.32.58-.71.58h-.69a6.91 6.91 0 0 0 2.21 4.37l.48-.4a.83.83 0 0 1 1.01 0c.28.23.28.6 0 .83l-.48.4a10.35 10.35 0 0 0 5.33 1.81v-.56c0-.33.32-.59.71-.59.4 0 .71.26.71.59v.56c1.98-.12 3.83-.75 5.33-1.81l-.48-.4a.51.51 0 0 1 0-.83.83.83 0 0 1 1 0l.49.4a6.91 6.91 0 0 0 2.2-4.37h-.68c-.4 0-.71-.26-.71-.58 0-.33.32-.6.71-.6h.69a6.91 6.91 0 0 0-2.21-4.36l-.48.4a.8.8 0 0 1-.51.17.8.8 0 0 1-.5-.17.52.52 0 0 1 0-.83l.48-.4c-1-.7-2.16-1.22-3.41-1.52-.38-.1-.6-.42-.49-.73.11-.31.51-.49.89-.4a11.44 11.44 0 0 1 4.54 2.22l.04.03c2 1.66 3.1 3.86 3.1 6.19 0 2.33-1.1 4.52-3.1 6.18l-.04.03-.03.03A11.93 11.93 0 0 1 15 26.48c-2.84 0-5.51-.9-7.54-2.54l-.03-.03-.04-.03a8.01 8.01 0 0 1-3.1-6.18c0-2.33 1.1-4.53 3.1-6.19Z"/>
  <path d="M15 10.08c-.4 0-.71-.26-.71-.59 0-.32.32-.58.71-.58.4 0 .71.26.71.58 0 .33-.32.59-.71.59Z"/>
</symbol><symbol id="tag" viewBox="0 0 30 30">
  <path d="M9.49 7.36a.59.59 0 0 0-.83 0 .6.6 0 0 0 0 .83.59.59 0 0 0 .83 0 .6.6 0 0 0 0-.83Z" fill="#00B2FF"/>
  <path d="m29.83 2.45-.73-.73.73-.72A.59.59 0 0 0 29 .17l-.72.73-.72-.72a.59.59 0 0 0-.41-.17h-9.92c-.78 0-1.52.3-2.07.85L10.2 5.81a.59.59 0 0 0 .83.83l4.94-4.95c.34-.33.78-.51 1.25-.51h9.67l.55.54-2.18 2.18a2.4 2.4 0 1 0 .83.83l2.18-2.18.55.56v9.66c0 .47-.2.91-.52 1.24L14 28.31a1.75 1.75 0 0 1-2.49 0l-9.83-9.83a1.75 1.75 0 0 1 0-2.49L8 9.67a.59.59 0 0 0-.83-.83L.86 15.16a2.91 2.91 0 0 0 0 4.15l9.83 9.83a2.92 2.92 0 0 0 4.15 0l14.3-14.3c.55-.55.85-1.29.85-2.07l.01-9.9c0-.16-.06-.31-.17-.42ZM24.9 6.83a1.22 1.22 0 0 1-1.74 0 1.23 1.23 0 0 1 1.22-2.05l-.68.68a.59.59 0 0 0 .83.83l.68-.68c.12.42.02.89-.31 1.22Z"/>
  <path d="M25.03 11.8 18.2 4.97c-.9-.9-2.37-.9-3.28 0l-10.8 10.8a2.3 2.3 0 0 0 0 3.29l6.83 6.83a2.3 2.3 0 0 0 3.28 0l10.8-10.81a2.3 2.3 0 0 0 0-3.28Zm-.83 2.45-10.8 10.8a1.14 1.14 0 0 1-1.63 0l-6.82-6.82a1.14 1.14 0 0 1 0-1.62L15.75 5.8a1.14 1.14 0 0 1 1.63 0l6.82 6.83a1.14 1.14 0 0 1 0 1.62Z"/>
  <path d="M19.11 11.72a.59.59 0 0 0-.83-.83l-.34.34a2.26 2.26 0 0 0-2.78.25c-.43.43-.65 1-.62 1.63a2.47 2.47 0 0 0 .73 1.62c.47.47.53 1.19.12 1.6-.4.4-1.12.35-1.6-.12-.46-.48-.52-1.19-.1-1.6a.59.59 0 0 0-.84-.83c-.73.74-.8 1.9-.25 2.8l-.4.4a.59.59 0 1 0 .83.82l.4-.4c.4.24.84.37 1.27.37.56 0 1.1-.2 1.52-.62.86-.86.81-2.32-.12-3.25a1.3 1.3 0 0 1-.39-.85.97.97 0 0 1 .27-.74c.41-.4 1.13-.35 1.6.12.47.47.52 1.18.11 1.59a.59.59 0 0 0 .83.83c.73-.73.8-1.89.25-2.79l.34-.34ZM13.18 21.44l-3.01-3.01a.59.59 0 0 0-.83.83l3.01 3a.58.58 0 0 0 .83 0 .59.59 0 0 0 0-.82ZM8.56 16.82a.59.59 0 0 0-.83 0 .6.6 0 0 0 0 .83.59.59 0 0 0 .83 0 .59.59 0 0 0 0-.83Z"/>
</symbol><symbol id="tel" viewBox="0 0 20 20">
  <path d="M15.81 12.39c-.4-.43-.9-.66-1.42-.66-.52 0-1.02.23-1.45.66L11.6 13.7l-.32-.16a5.4 5.4 0 0 1-.42-.23 14.51 14.51 0 0 1-3.48-3.16 8.55 8.55 0 0 1-1.14-1.8c.35-.32.67-.65.98-.96l.36-.36c.88-.89.88-2.04 0-2.92L6.42 2.96l-.4-.4c-.25-.26-.51-.53-.79-.78a2 2 0 0 0-1.41-.62c-.52 0-1.02.21-1.44.62L.92 3.24C.4 3.77.1 4.43.02 5.2c-.1 1.23.26 2.38.54 3.13.68 1.84 1.7 3.55 3.23 5.38a19.89 19.89 0 0 0 6.63 5.18A10.33 10.33 0 0 0 14.4 20c.98 0 1.8-.35 2.44-1.05l.02-.02c.22-.26.47-.5.74-.76l.55-.55c.42-.43.64-.94.64-1.46s-.23-1.02-.65-1.44l-2.33-2.33Zm1.52 4.44-.52.52c-.27.26-.55.54-.81.84-.43.46-.93.67-1.6.67h-.19a9.18 9.18 0 0 1-3.3-.99c-2.39-1.15-4.49-2.8-6.23-4.88a17.13 17.13 0 0 1-3.05-5.06 6.02 6.02 0 0 1-.47-2.64c.04-.5.23-.9.58-1.25L3.18 2.6c.21-.2.43-.3.65-.3a.9.9 0 0 1 .61.3h.02l.76.76.4.41 1.15 1.15c.45.45.45.86 0 1.31l-.36.36c-.36.37-.7.7-1.06 1.03l-.02.02c-.37.37-.3.72-.22.96l.01.04c.3.73.72 1.41 1.37 2.23a15.5 15.5 0 0 0 3.75 3.41c.18.11.35.2.52.28.16.08.3.15.42.23.02 0 .04.02.05.03.15.07.28.1.42.1a.9.9 0 0 0 .64-.29l1.45-1.44c.14-.15.37-.32.64-.32.26 0 .48.17.6.3l.01.02 2.33 2.32c.44.43.44.88 0 1.32ZM10.81 4.76a5.38 5.38 0 0 1 4.43 4.42c.05.28.29.47.56.47h.1a.57.57 0 0 0 .47-.66A6.5 6.5 0 0 0 11 3.63a.57.57 0 0 0-.66.47c-.06.3.15.6.46.66Z"/>
  <path d="M20 8.82a10.7 10.7 0 0 0-3.02-5.8c-1.6-1.6-3.6-2.64-5.82-3.01a.57.57 0 1 0-.18 1.12 9.6 9.6 0 0 1 7.89 7.88c.04.28.28.47.56.47h.1c.3-.05.52-.35.46-.66Z"/>
</symbol><symbol id="vk" viewBox="0 0 30 30">
  <path d="M21.62 17.45c-1.24-1.18-1.33-1.18-.27-2.54 1.33-1.73 3.09-3.91 1.5-3.91h-2.9c-.54 0-.63.36-.8.82-.7 1.73-2.12 4-2.65 3.63-.53-.36-.27-1.72-.27-3.9a.72.72 0 0 0-.17-.73c-.18-.18-.44-.37-.7-.37-.45-.09-.89-.18-1.33-.18-1.68 0-2.82.73-2.2.82 1.14.18 1.05 2.73.79 3.82-.44 1.9-2.2-1.46-3-3.18a.87.87 0 0 0-.88-.73h-2.3c-.35 0-.62.1-.62.36 0 .46 2.2 4.91 4.24 7.19 2.03 2.18 4.06 2 5.47 2 .18 0 .35-.1.44-.19a.7.7 0 0 0 .18-.45c0-1.46.53-2.18 1.5-1.18 1.06 1.09 1.32 1.82 2.64 1.82h2.39c.61 0 .79-.19.79-.46.09-.64-.97-1.82-1.85-2.64ZM15.35 0C23.55.18 30.1 7 30 15.27A14.9 14.9 0 0 1 14.9 30 14.98 14.98 0 0 1 0 15 15.19 15.19 0 0 1 15.35 0Z"/>
</symbol></svg>