<svg width="30" height="30" viewBox="0 0 30 30" xmlns="http://www.w3.org/2000/svg">
  <path d="M15 9.4c-.3 0-.6.4-.6.7 0 .4.3.7.6.7s.6-.3.6-.7c0-.3-.3-.7-.6-.7Z"/>
  <path d="M28.2 13.6H26c-1.2-4-3-11.1-6.1-13-1.6-1-3.1-.4-3.7 1-.2.6-.7 1-1.2 1s-1-.4-1.2-1c-.6-1.3-2-2.1-3.5-1.2C7 2.2 5.3 9.5 4 13.6H1.8c-1 0-1.8.9-1.8 2s.8 2 1.8 2h26.4c1 0 1.8-.9 1.8-2s-.8-2-1.8-2ZM6.1 10.8h6.6c.3 0 .5-.3.5-.7 0-.3-.2-.7-.5-.7H6.5c1.8-5.7 3.4-7.3 4.3-7.8.9-.5 1.6 0 2 .6.3 1 1.2 1.7 2.2 1.7 1 0 1.9-.6 2.3-1.7.3-.7 1-1 2-.5.8.6 2.5 2.3 4.2 7.7h-6.2c-.3 0-.5.4-.5.7 0 .4.2.7.5.7H24l.8 2.8H5.3l.8-2.8Zm22.1 5.5H1.8c-.4 0-.6-.3-.6-.7 0-.4.2-.7.6-.7h26.4c.4 0 .6.3.6.7 0 .4-.2.7-.6.7ZM13.8 20.4H4.5c-.4 0-.6.3-.6.7v2.7C3.9 27.2 6.2 30 9 30c2.2 0 4.2-1.6 5-4a2 2 0 0 1 1.8 0c.8 2.4 2.8 4 5 4 2.9 0 5.2-2.8 5.2-6.2v-2.7c0-.4-.2-.7-.6-.7h-9.3c-.4 0-.6.3-.6.7v.7h-1.2V21c0-.4-.2-.7-.6-.7Zm-4.7 8.2c-2.2 0-4-2.1-4-4.8v-2h8.1v2c0 2.7-1.8 4.8-4 4.8Zm7.7-6.8H25v2c0 2.7-1.9 4.8-4.1 4.8-2.3 0-4.1-2.1-4.1-4.8v-2ZM15.6 23v1.4a3 3 0 0 0-1.2 0V23h1.2Z"/>
  <path d="M9.1 25.9c-1 0-1.7-1-1.7-2 0-.4-.3-.8-.6-.8s-.6.4-.6.7c0 2 1.3 3.5 3 3.5.3 0 .5-.3.5-.7 0-.4-.2-.7-.6-.7ZM20.9 27.3c1.6 0 2.9-1.6 2.9-3.5 0-.3-.3-.7-.6-.7s-.6.4-.6.7c0 1.2-.8 2-1.7 2-.4 0-.6.4-.6.8s.2.7.6.7Z"/>
</svg>
